<svg width="1013" height="605" viewBox="0 0 1013 605" fill="none" xmlns="http://www.w3.org/2000/svg">
<g id="to-do-list">
<g id="Vector">
<path d="M756.225 84.677C819.534 111.633 849.943 165.838 840.471 212.718C830.501 259.305 781.15 298.274 742.267 330.504C702.885 362.441 673.972 387.053 635.089 427.487C596.206 467.921 547.353 523.884 495.011 526.521C442.17 529.451 386.338 479.348 364.404 435.691C342.968 392.034 355.929 354.823 319.539 319.956C283.647 285.089 198.902 252.273 208.373 238.209C217.845 224.438 321.533 229.126 385.341 201.877C449.647 174.628 474.074 115.735 534.891 86.435C595.708 57.135 692.417 57.428 756.225 84.677Z" fill="#FF1053"/>
<path d="M756.225 84.677C819.534 111.633 849.943 165.838 840.471 212.718C830.501 259.305 781.15 298.274 742.267 330.504C702.885 362.441 673.972 387.053 635.089 427.487C596.206 467.921 547.353 523.884 495.011 526.521C442.17 529.451 386.338 479.348 364.404 435.691C342.968 392.034 355.929 354.823 319.539 319.956C283.647 285.089 198.902 252.273 208.373 238.209C217.845 224.438 321.533 229.126 385.341 201.877C449.647 174.628 474.074 115.735 534.891 86.435C595.708 57.135 692.417 57.428 756.225 84.677Z" fill="url(#paint0_linear)"/>
</g>
<g id="List">
<path id="Vector_2" d="M892.299 136H499.299V52H892.299V136Z" fill="white"/>
<path id="Vector_3" d="M599.505 79.7744C598.562 79.7744 597.657 80.1491 596.99 80.816C596.323 81.483 595.949 82.3875 595.949 83.3308C595.949 84.274 596.323 85.1786 596.99 85.8455C597.657 86.5125 598.562 86.8872 599.505 86.8872H859.164C860.106 86.8849 861.009 86.5093 861.674 85.8426C862.339 85.1758 862.712 84.2725 862.712 83.3308C862.712 82.389 862.339 81.4857 861.674 80.819C861.009 80.1523 860.106 79.7766 859.164 79.7744H599.505Z" fill="#3F3D56"/>
<path id="Vector_4" d="M599.505 101.113C598.562 101.111 597.657 101.484 596.988 102.149C596.32 102.815 595.943 103.718 595.941 104.662C595.939 105.605 596.312 106.51 596.978 107.179C597.643 107.847 598.547 108.224 599.49 108.226H763.649C764.117 108.226 764.58 108.135 765.012 107.957C765.445 107.778 765.837 107.516 766.168 107.186C766.499 106.856 766.761 106.463 766.941 106.032C767.12 105.6 767.212 105.137 767.212 104.669C767.212 104.202 767.12 103.739 766.941 103.307C766.761 102.875 766.499 102.483 766.168 102.152C765.837 101.822 765.445 101.56 765.012 101.382C764.58 101.203 764.117 101.112 763.649 101.113H599.505Z" fill="#3F3D56"/>
<path id="Vector_5" d="M892.299 136H499.299V52H892.299V136ZM505.299 130H886.299V58H505.299V130Z" fill="#CCCCCC"/>
<path id="Vector_6" d="M892.299 241H499.299V157H892.299V241Z" fill="white"/>
<path id="Vector_7" d="M550.223 220.338C562.008 220.338 571.562 210.785 571.562 199C571.562 187.215 562.008 177.662 550.223 177.662C538.439 177.662 528.885 187.215 528.885 199C528.885 210.785 538.439 220.338 550.223 220.338Z" fill="#E6E6E6"/>
<path id="Vector_8" d="M599.505 184.774C598.562 184.774 597.657 185.149 596.99 185.816C596.323 186.483 595.949 187.388 595.949 188.331C595.949 189.274 596.323 190.179 596.99 190.846C597.657 191.512 598.562 191.887 599.505 191.887H859.164C860.106 191.885 861.009 191.509 861.674 190.843C862.339 190.176 862.712 189.273 862.712 188.331C862.712 187.389 862.339 186.486 861.674 185.819C861.009 185.152 860.106 184.777 859.164 184.774H599.505Z" fill="#E6E6E6"/>
<path id="Vector_9" d="M599.505 206.113C598.562 206.111 597.657 206.484 596.988 207.149C596.32 207.815 595.943 208.718 595.941 209.662C595.939 210.605 596.312 211.51 596.978 212.179C597.643 212.847 598.547 213.224 599.49 213.226H763.649C764.117 213.226 764.58 213.135 765.012 212.957C765.445 212.778 765.837 212.516 766.168 212.186C766.499 211.856 766.761 211.463 766.941 211.032C767.12 210.6 767.212 210.137 767.212 209.669C767.212 209.202 767.12 208.739 766.941 208.307C766.761 207.875 766.499 207.483 766.168 207.152C765.837 206.822 765.445 206.56 765.012 206.382C764.58 206.203 764.117 206.112 763.649 206.113H599.505Z" fill="#E6E6E6"/>
<path id="Vector_10" d="M892.299 241H499.299V157H892.299V241ZM505.299 235H886.299V163H505.299V235Z" fill="#E6E6E6"/>
<path id="Vector_11" d="M892.299 346H499.299V262H892.299V346Z" fill="white"/>
<path id="Vector_12" d="M550.223 325.338C562.008 325.338 571.562 315.785 571.562 304C571.562 292.215 562.008 282.662 550.223 282.662C538.439 282.662 528.885 292.215 528.885 304C528.885 315.785 538.439 325.338 550.223 325.338Z" fill="#E6E6E6"/>
<path id="Vector_13" d="M599.505 289.774C598.562 289.774 597.657 290.149 596.99 290.816C596.323 291.483 595.949 292.388 595.949 293.331C595.949 294.274 596.323 295.179 596.99 295.846C597.657 296.512 598.562 296.887 599.505 296.887H859.164C860.106 296.885 861.009 296.509 861.674 295.843C862.339 295.176 862.712 294.273 862.712 293.331C862.712 292.389 862.339 291.486 861.674 290.819C861.009 290.152 860.106 289.777 859.164 289.774H599.505Z" fill="#E6E6E6"/>
<path id="Vector_14" d="M599.505 311.113C598.562 311.111 597.657 311.484 596.988 312.149C596.32 312.815 595.943 313.718 595.941 314.662C595.939 315.605 596.312 316.51 596.978 317.179C597.643 317.847 598.547 318.224 599.49 318.226H763.649C764.117 318.226 764.58 318.135 765.012 317.957C765.445 317.778 765.837 317.516 766.168 317.186C766.499 316.856 766.761 316.463 766.941 316.032C767.12 315.6 767.212 315.137 767.212 314.669C767.212 314.202 767.12 313.739 766.941 313.307C766.761 312.875 766.499 312.483 766.168 312.152C765.837 311.822 765.445 311.56 765.012 311.382C764.58 311.203 764.117 311.112 763.649 311.113H599.505Z" fill="#E6E6E6"/>
<path id="Vector_15" d="M892.299 346H499.299V262H892.299V346ZM505.299 340H886.299V268H505.299V340Z" fill="#E6E6E6"/>
<g id="Group 1">
<path id="Vector_16" d="M550.436 120.873C565.037 120.873 576.873 109.037 576.873 94.4363C576.873 79.8359 565.037 68 550.436 68C535.836 68 524 79.8359 524 94.4363C524 109.037 535.836 120.873 550.436 120.873Z" fill="#2F2E41"/>
<path id="Vector_17" d="M547.917 105.595L540.005 95.4224L544.606 91.8434L548.353 96.6604L561.009 83.2994L565.242 87.3094L547.917 105.595Z" fill="white"/>
</g>
</g>
<g id="Arm">
<path id="Vector_18" d="M425.127 389.4C439.727 389.4 451.563 377.564 451.563 362.964C451.563 348.363 439.727 336.528 425.127 336.528C410.526 336.528 398.69 348.363 398.69 362.964C398.69 377.564 410.526 389.4 425.127 389.4Z" fill="#3F3D56"/>
<path id="Vector_19" d="M422.607 374.123L414.695 363.95L419.296 360.371L423.043 365.188L435.699 351.827L439.932 355.837L422.607 374.123Z" fill="white"/>
<path id="Vector_20" d="M402.499 356.231C400.912 355.712 399.458 354.852 398.24 353.71C397.021 352.569 396.068 351.174 395.446 349.624C394.825 348.074 394.551 346.407 394.644 344.74C394.737 343.073 395.194 341.447 395.984 339.975L379.47 319.765L389.305 306.734L412.224 335.603C414.608 337.093 416.362 339.405 417.155 342.102C417.947 344.8 417.723 347.694 416.524 350.236C415.325 352.779 413.236 354.794 410.651 355.899C408.066 357.004 405.165 357.122 402.499 356.231H402.499Z" fill="#FFB8B8"/>
<path id="Vector_21" d="M332.808 223.307C332.808 223.307 329.154 198.947 341.334 200.165C353.514 201.383 371.784 268.373 371.784 268.373L404.669 323.183L388.836 331.709L349.86 282.989L332.808 223.307Z" fill="#CCCCCC"/>
</g>
<g id="Body">
<path id="Vector_22" d="M274.645 347.929C273.726 346.778 273.077 345.444 272.744 344.022C272.411 342.599 272.402 341.123 272.717 339.697C273.032 338.271 273.665 336.93 274.569 335.767C275.474 334.605 276.629 333.651 277.953 332.971L275.816 310.262L289.654 305.63L292.211 337.741C293.235 339.985 293.379 342.517 292.615 344.858C291.852 347.199 290.235 349.185 288.07 350.441C285.904 351.697 283.342 352.135 280.868 351.672C278.393 351.209 276.179 349.877 274.645 347.929V347.929Z" fill="#FFB8B8"/>
<path id="Vector_23" d="M289.501 217.592C289.501 217.592 298.997 198.163 307.436 204.997C315.874 211.832 295.867 269.282 295.867 269.282L292.824 325.053L276.786 323.49L272.252 269.154L289.501 217.592Z" fill="#CCCCCC"/>
<path id="Vector_24" d="M162.121 505.047L174.026 514.442L216.861 474.146L199.291 460.28L162.121 505.047Z" fill="#FFB8B8"/>
<path id="Vector_25" d="M162.231 498.861L185.676 517.364L185.677 517.364C189.639 520.492 192.164 525.026 192.698 529.969C193.232 534.911 191.73 539.859 188.522 543.722L188.129 544.195L149.743 513.901L162.231 498.861Z" fill="#C1C1C1"/>
<path id="Vector_26" d="M327.571 531.127H342.887L350.174 473.53L327.568 473.531L327.571 531.127Z" fill="#FFB8B8"/>
<path id="Vector_27" d="M323.664 526.252L353.827 526.251H353.829C358.927 526.251 363.816 528.226 367.421 531.74C371.025 535.254 373.051 540.021 373.051 544.991V545.6L323.665 545.602L323.664 526.252Z" fill="#C1C1C1"/>
<path id="Vector_28" d="M354.447 261.11C354.447 261.11 383.181 295.214 376.934 329.318C370.688 363.421 365.69 388.999 365.69 388.999L355.696 465.733C355.696 465.733 359.444 486.63 354.447 492.016C354.447 492.016 361.943 504.709 348.2 509.581C334.457 514.453 327.042 507.897 327.042 507.897C327.042 507.897 316.967 493.747 323.214 490.093L325.845 339.505L225.767 466.951C225.767 466.951 223.927 482.453 211.104 482.619L195.783 493.747L178.292 484.003L187.038 473.041C187.038 473.041 182.04 460.861 193.284 458.425L258.249 375.601L274.49 332.972C274.49 332.972 283.235 300.086 306.972 286.688V272.432L354.447 261.11Z" fill="#2F2E41"/>
<path id="Vector_29" d="M305.098 202.037C308.881 197.679 314.176 194.829 319.975 194.031C325.773 193.233 331.67 194.542 336.543 197.709L337.581 198.383C348.67 210.627 356.123 225.587 359.138 241.654L363.817 266.591L305.098 278.991L291.333 232.707C289.586 226.833 290.006 220.547 292.521 214.943C295.036 209.34 299.487 204.773 305.098 202.037V202.037Z" fill="#CCCCCC"/>
<path id="Vector_30" d="M352.963 184.694H293.471C292.247 184.693 291.074 184.218 290.209 183.375C289.343 182.531 288.857 181.387 288.855 180.194V155.194C288.855 146.309 292.475 137.789 298.92 131.506C305.364 125.224 314.104 121.694 323.217 121.694C332.33 121.694 341.07 125.224 347.514 131.506C353.958 137.789 357.579 146.309 357.579 155.194V180.194C357.577 181.387 357.09 182.531 356.225 183.375C355.36 184.218 354.187 184.693 352.963 184.694Z" fill="#2F2E41"/>
<path id="Vector_31" d="M330.278 184.112C344.191 184.112 355.471 173.116 355.471 159.551C355.471 145.986 344.191 134.99 330.278 134.99C316.364 134.99 305.085 145.986 305.085 159.551C305.085 173.116 316.364 184.112 330.278 184.112Z" fill="#FFB8B8"/>
<path id="Vector_32" d="M365.708 157.694H334.003L333.678 152.602L332.052 157.694H327.17L326.526 147.602L323.304 157.694H313.858V157.194C313.858 142.582 324.485 130.694 337.548 130.694H342.018C355.08 130.694 365.708 142.582 365.708 157.194V157.694Z" fill="#2F2E41"/>
<path id="Vector_33" d="M335.315 189.361C334.928 189.361 334.541 189.332 334.158 189.274L296.421 183.607V145.287C296.421 141.373 298.016 137.619 300.855 134.851C303.694 132.083 307.545 130.528 311.56 130.528H337.962L336.934 131.548C322.624 145.751 333.405 168.781 341.104 181.245C341.669 182.141 341.925 183.19 341.833 184.238C341.74 185.286 341.306 186.277 340.592 187.066C339.937 187.8 339.125 188.386 338.214 188.782C337.302 189.178 336.313 189.376 335.315 189.361Z" fill="#2F2E41"/>
</g>
</g>
<defs>
<linearGradient id="paint0_linear" x1="524.905" y1="64.3466" x2="524.905" y2="526.644" gradientUnits="userSpaceOnUse">
<stop stop-color="#FFBA08"/>
<stop offset="1" stop-color="white" stop-opacity="0"/>
</linearGradient>
</defs>
</svg>
